<mxfile host="65bd71144e">
    <diagram id="U6lv3Tj5L7SEx49GrB86" name="Page-1">
        <mxGraphModel dx="5140" dy="10243" grid="1" gridSize="10" guides="1" tooltips="1" connect="1" arrows="1" fold="1" page="1" pageScale="1" pageWidth="1150" pageHeight="1150" math="0" shadow="0">
            <root>
                <mxCell id="0"/>
                <mxCell id="1" parent="0"/>
                <mxCell id="PPFeed" value="PPFeed" style="shape=mxgraph.pid.pumps.centrifugal_pump_1;fillColor=white;verticalLabelPosition=bottom;labelPosition=center;align=center;verticalAlign=top;" parent="1" vertex="1">
                    <mxGeometry x="600.0000000000006" y="-2629.166666666666" width="70" height="70" as="geometry"/>
                </mxCell>
                <mxCell id="PGshredder" value="PGshredder" style="shape=rectangle;rounded=1;strokeColor=#00f;fillColor=default;fillColor=white;verticalLabelPosition=bottom;labelPosition=center;align=center;verticalAlign=top;" parent="1" vertex="1">
                    <mxGeometry x="600.0000000000005" y="-2329.166666666666" width="100" height="60" as="geometry"/>
                </mxCell>
                <mxCell id="MXPGfeed" value="MXPGfeed" style="shape=mxgraph.pid.vessels.jacketed_mixing_vessel;fillColor=white;verticalLabelPosition=bottom;labelPosition=center;align=center;verticalAlign=top;" parent="1" vertex="1">
                    <mxGeometry x="900.0000000000006" y="-2629.166666666666" width="150" height="200" as="geometry"/>
                </mxCell>
                <mxCell id="TkDigester" value="TkDigester" style="shape=rectangle;rounded=1;strokeColor=#00f;fillColor=default;fillColor=white;verticalLabelPosition=bottom;labelPosition=center;align=center;verticalAlign=top;" parent="1" vertex="1">
                    <mxGeometry x="1200.0000000000005" y="-2629.166666666666" width="100" height="60" as="geometry"/>
                </mxCell>
                <mxCell id="FLDigestate" value="FLDigestate" style="shape=mxgraph.pid.separators.spray_scrubber;fillColor=white;verticalLabelPosition=bottom;labelPosition=center;align=center;verticalAlign=top;" parent="1" vertex="1">
                    <mxGeometry x="1500.0000000000005" y="-3029.166666666666" width="100" height="100" as="geometry"/>
                </mxCell>
                <mxCell id="MXBiogas" value="MXBiogas" style="shape=mxgraph.pid.mixers.in-line_static_mixer;fillColor=white;verticalLabelPosition=bottom;labelPosition=center;align=center;verticalAlign=top;" parent="1" vertex="1">
                    <mxGeometry x="1500.0000000000005" y="-2579.166666666666" width="70" height="20" as="geometry"/>
                </mxCell>
                <mxCell id="Compressor" value="Compressor" style="shape=rectangle;rounded=1;strokeColor=#00f;fillColor=default;fillColor=white;verticalLabelPosition=bottom;labelPosition=center;align=center;verticalAlign=top;" parent="1" vertex="1">
                    <mxGeometry x="1800.0000000000005" y="-2579.166666666666" width="100" height="60" as="geometry"/>
                </mxCell>
                <mxCell id="RXGasCleaning" value="RXGasCleaning" style="shape=mxgraph.pid.vessels.jacketed_mixing_vessel;fillColor=white;verticalLabelPosition=bottom;labelPosition=center;align=center;verticalAlign=top;" parent="1" vertex="1">
                    <mxGeometry x="2100.0000000000005" y="-2579.166666666666" width="150" height="200" as="geometry"/>
                </mxCell>
                <mxCell id="SPGasSplitting" value="SPGasSplitting" style="shape=mxgraph.pid.filters.filter;fillColor=white;verticalLabelPosition=bottom;labelPosition=center;align=center;verticalAlign=top;" parent="1" vertex="1">
                    <mxGeometry x="2400.0000000000005" y="-2579.166666666666" width="30" height="30" as="geometry"/>
                </mxCell>
                <mxCell id="CPRNG" value="CPRNG" style="shape=rectangle;rounded=1;strokeColor=#00f;fillColor=default;fillColor=white;verticalLabelPosition=bottom;labelPosition=center;align=center;verticalAlign=top;" parent="1" vertex="1">
                    <mxGeometry x="2700.0000000000005" y="-2579.166666666666" width="100" height="60" as="geometry"/>
                </mxCell>
                <mxCell id="HXGasCooling" value="HXGasCooling" style="shape=mxgraph.pid.heat_exchangers.heater;fillColor=white;verticalLabelPosition=bottom;labelPosition=center;align=center;verticalAlign=top;" parent="1" vertex="1">
                    <mxGeometry x="3000.0000000000005" y="-2579.166666666666" width="60" height="60" as="geometry"/>
                </mxCell>
                <mxCell id="MXCO2Absorber" value="MXCO2Absorber" style="shape=mxgraph.pid.mixers.in-line_static_mixer;fillColor=white;verticalLabelPosition=bottom;labelPosition=center;align=center;verticalAlign=top;" parent="1" vertex="1">
                    <mxGeometry x="600.0000000000005" y="-1829.1666666666665" width="70" height="20" as="geometry"/>
                </mxCell>
                <mxCell id="CLCO2Absorber" value="CLCO2Absorber" style="shape=rectangle;rounded=1;strokeColor=#00f;fillColor=default;fillColor=white;verticalLabelPosition=bottom;labelPosition=center;align=center;verticalAlign=top;" parent="1" vertex="1">
                    <mxGeometry x="900.0000000000005" y="-1829.166666666666" width="100" height="60" as="geometry"/>
                </mxCell>
                <mxCell id="CLCO2BottomFlash" value="CLCO2BottomFlash" style="shape=mxgraph.pid.separators.spray_scrubber;fillColor=white;verticalLabelPosition=bottom;labelPosition=center;align=center;verticalAlign=top;" parent="1" vertex="1">
                    <mxGeometry x="1200.0000000000002" y="-1979.166666666666" width="70" height="67" as="geometry"/>
                </mxCell>
                <mxCell id="PPCO2" value="PPCO2" style="shape=mxgraph.pid.pumps.centrifugal_pump_1;fillColor=white;verticalLabelPosition=bottom;labelPosition=center;align=center;verticalAlign=top;" parent="1" vertex="1">
                    <mxGeometry x="1500.0000000000002" y="-1979.166666666666" width="70" height="70" as="geometry"/>
                </mxCell>
                <mxCell id="HXCO2" value="HXCO2" style="shape=mxgraph.pid.heat_exchangers.condenser;fillColor=white;verticalLabelPosition=bottom;labelPosition=center;align=center;verticalAlign=top;" parent="1" vertex="1">
                    <mxGeometry x="600.0000000000001" y="-1079.1666666666663" width="60" height="60" as="geometry"/>
                </mxCell>
                <mxCell id="Stripper_Column_A2" value="Stripper_Column_A2" style="shape=mxgraph.pid.vessels.tower_with_packing;fillColor=white;verticalLabelPosition=bottom;labelPosition=center;align=center;verticalAlign=top;" parent="1" vertex="1">
                    <mxGeometry x="900.0000000000002" y="-1229.166666666666" width="80" height="220" as="geometry"/>
                </mxCell>
                <mxCell id="CLMEARecovery" value="CLMEARecovery" style="shape=mxgraph.pid.filters.filter;fillColor=white;verticalLabelPosition=bottom;labelPosition=center;align=center;verticalAlign=top;" parent="1" vertex="1">
                    <mxGeometry x="1200.0000000000002" y="-1379.166666666666" width="30" height="30" as="geometry"/>
                </mxCell>
                <mxCell id="MXAbsorber" value="MXAbsorber" style="shape=mxgraph.pid.mixers.in-line_static_mixer;fillColor=white;verticalLabelPosition=bottom;labelPosition=center;align=center;verticalAlign=top;" parent="1" vertex="1">
                    <mxGeometry x="1200.0000000000002" y="-1679.166666666666" width="70" height="20" as="geometry"/>
                </mxCell>
                <mxCell id="CLRNGFlash" value="CLRNGFlash" style="shape=mxgraph.pid.separators.spray_scrubber;fillColor=white;verticalLabelPosition=bottom;labelPosition=center;align=center;verticalAlign=top;" parent="1" vertex="1">
                    <mxGeometry x="1500.0000000000002" y="-1679.166666666666" width="70" height="67" as="geometry"/>
                </mxCell>
                <mxCell id="CPRNG2" value="CPRNG2" style="shape=rectangle;rounded=1;strokeColor=#00f;fillColor=default;fillColor=white;verticalLabelPosition=bottom;labelPosition=center;align=center;verticalAlign=top;" parent="1" vertex="1">
                    <mxGeometry x="1800.0000000000002" y="-1679.166666666666" width="100" height="60" as="geometry"/>
                </mxCell>
                <mxCell id="HXRNGCooling" value="HXRNGCooling" style="shape=mxgraph.pid.heat_exchangers.heater;fillColor=white;verticalLabelPosition=bottom;labelPosition=center;align=center;verticalAlign=top;" parent="1" vertex="1">
                    <mxGeometry x="2100.0000000000005" y="-1679.166666666666" width="60" height="60" as="geometry"/>
                </mxCell>
                <mxCell id="C2" value="C2" style="shape=rectangle;rounded=1;strokeColor=#00f;fillColor=default;fillColor=white;verticalLabelPosition=bottom;labelPosition=center;align=center;verticalAlign=top;" parent="1" vertex="1">
                    <mxGeometry x="2400.0000000000005" y="-1679.1666666666658" width="100" height="60" as="geometry"/>
                </mxCell>
                <mxCell id="P2Reformer" value="P2Reformer" style="shape=mxgraph.pid.pumps.centrifugal_pump_1;fillColor=white;verticalLabelPosition=bottom;labelPosition=center;align=center;verticalAlign=top;" parent="1" vertex="1">
                    <mxGeometry x="600.0000000000001" y="-629.1666666666663" width="70" height="70" as="geometry"/>
                </mxCell>
                <mxCell id="mxSteamReformer" value="mxSteamReformer&#10;" style="shape=mxgraph.pid.vessels.jacketed_mixing_vessel;fillColor=white;verticalLabelPosition=bottom;labelPosition=center;align=center;verticalAlign=top;" parent="1" vertex="1">
                    <mxGeometry x="900.0000000000001" y="-629.1666666666663" width="150" height="200" as="geometry"/>
                </mxCell>
                <mxCell id="rxSMR" value="rxSMR" style="shape=rectangle;rounded=1;strokeColor=#00f;fillColor=default;fillColor=white;verticalLabelPosition=bottom;labelPosition=center;align=center;verticalAlign=top;" parent="1" vertex="1">
                    <mxGeometry x="1200" y="-629.1666666666662" width="100" height="60" as="geometry"/>
                </mxCell>
                <mxCell id="rxWGS" value="rxWGS" style="shape=rectangle;rounded=1;strokeColor=#00f;fillColor=default;fillColor=white;verticalLabelPosition=bottom;labelPosition=center;align=center;verticalAlign=top;" parent="1" vertex="1">
                    <mxGeometry x="1500" y="-629.1666666666662" width="100" height="60" as="geometry"/>
                </mxCell>
                <mxCell id="spWGS" value="spWGS&#10;" style="shape=mxgraph.pid.separators.spray_scrubber;fillColor=white;verticalLabelPosition=bottom;labelPosition=center;align=center;verticalAlign=top;" parent="1" vertex="1">
                    <mxGeometry x="1800" y="-629.1666666666662" width="100" height="100" as="geometry"/>
                </mxCell>
                <mxCell id="SplPressureSwing" value="SplPressureSwing&#10;" style="shape=mxgraph.pid.filters.filter;fillColor=white;verticalLabelPosition=bottom;labelPosition=center;align=center;verticalAlign=top;" parent="1" vertex="1">
                    <mxGeometry x="2100.0000000000005" y="-779.1666666666661" width="30" height="30" as="geometry"/>
                </mxCell>
                <mxCell id="rxAlcohols" value="rxAlcohols" style="shape=rectangle;rounded=1;strokeColor=#00f;fillColor=default;fillColor=white;verticalLabelPosition=bottom;labelPosition=center;align=center;verticalAlign=top;" parent="1" vertex="1">
                    <mxGeometry x="600" y="-29.166666666666323" width="100" height="60" as="geometry"/>
                </mxCell>
                <mxCell id="MXdehydration" value="MXdehydration" style="shape=mxgraph.pid.mixers.in-line_static_mixer;fillColor=white;verticalLabelPosition=bottom;labelPosition=center;align=center;verticalAlign=top;" parent="1" vertex="1">
                    <mxGeometry x="900" y="-29.166666666666263" width="70" height="20" as="geometry"/>
                </mxCell>
                <mxCell id="p1" value="p1" style="shape=mxgraph.pid.pumps.centrifugal_pump_1;fillColor=white;verticalLabelPosition=bottom;labelPosition=center;align=center;verticalAlign=top;" parent="1" vertex="1">
                    <mxGeometry x="1200" y="-29.16666666666621" width="70" height="70" as="geometry"/>
                </mxCell>
                <mxCell id="ProcessHX" value="ProcessHX" style="shape=mxgraph.pid.heat_exchangers.condenser;fillColor=white;verticalLabelPosition=bottom;labelPosition=center;align=center;verticalAlign=top;" parent="1" vertex="1">
                    <mxGeometry x="1500" y="-29.166666666666156" width="60" height="60" as="geometry"/>
                </mxCell>
                <mxCell id="C1Dehydration" value="C1Dehydration" style="shape=rectangle;rounded=1;strokeColor=#00f;fillColor=default;fillColor=white;verticalLabelPosition=bottom;labelPosition=center;align=center;verticalAlign=top;" parent="1" vertex="1">
                    <mxGeometry x="1800" y="-179.1666666666661" width="100" height="60" as="geometry"/>
                </mxCell>
                <mxCell id="D1Dehydration" value="D1Dehydration" style="shape=mxgraph.pid.separators.spray_scrubber;fillColor=white;verticalLabelPosition=bottom;labelPosition=center;align=center;verticalAlign=top;" parent="1" vertex="1">
                    <mxGeometry x="2100" y="-179.16666666666603" width="100" height="100" as="geometry"/>
                </mxCell>
                <mxCell id="splitTopD" value="splitTopD" style="shape=mxgraph.pid.filters.filter;fillColor=white;verticalLabelPosition=bottom;labelPosition=center;align=center;verticalAlign=top;" parent="1" vertex="1">
                    <mxGeometry x="2400" y="-329.16666666666595" width="30" height="30" as="geometry"/>
                </mxCell>
                <mxCell id="M1O" value="M1O" style="shape=mxgraph.pid.mixers.in-line_static_mixer;fillColor=white;verticalLabelPosition=bottom;labelPosition=center;align=center;verticalAlign=top;" parent="1" vertex="1">
                    <mxGeometry x="2700" y="-479.16666666666595" width="70" height="20" as="geometry"/>
                </mxCell>
                <mxCell id="C1O" value="C1O" style="shape=rectangle;rounded=1;strokeColor=#00f;fillColor=default;fillColor=white;verticalLabelPosition=bottom;labelPosition=center;align=center;verticalAlign=top;" parent="1" vertex="1">
                    <mxGeometry x="3000" y="-479.1666666666659" width="100" height="60" as="geometry"/>
                </mxCell>
                <mxCell id="H1O" value="H1O" style="shape=mxgraph.pid.heat_exchangers.heater;fillColor=white;verticalLabelPosition=bottom;labelPosition=center;align=center;verticalAlign=top;" parent="1" vertex="1">
                    <mxGeometry x="3300" y="-479.16666666666583" width="60" height="60" as="geometry"/>
                </mxCell>
                <mxCell id="RXOligomerization" value="RXOligomerization" style="shape=rectangle;rounded=1;strokeColor=#00f;fillColor=default;fillColor=white;verticalLabelPosition=bottom;labelPosition=center;align=center;verticalAlign=top;" parent="1" vertex="1">
                    <mxGeometry x="3600" y="-479.1666666666658" width="100" height="60" as="geometry"/>
                </mxCell>
                <mxCell id="F1O" value="F1O" style="shape=mxgraph.pid.separators.spray_scrubber;fillColor=white;verticalLabelPosition=bottom;labelPosition=center;align=center;verticalAlign=top;" parent="1" vertex="1">
                    <mxGeometry x="3900" y="-479.1666666666657" width="100" height="100" as="geometry"/>
                </mxCell>
                <mxCell id="P1H" value="P1H" style="shape=mxgraph.pid.pumps.centrifugal_pump_1;fillColor=white;verticalLabelPosition=bottom;labelPosition=center;align=center;verticalAlign=top;" parent="1" vertex="1">
                    <mxGeometry x="4200" y="-479.1666666666656" width="70" height="70" as="geometry"/>
                </mxCell>
                <mxCell id="H1H" value="H1H" style="shape=mxgraph.pid.heat_exchangers.heater;fillColor=white;verticalLabelPosition=bottom;labelPosition=center;align=center;verticalAlign=top;" parent="1" vertex="1">
                    <mxGeometry x="4500" y="-479.1666666666656" width="60" height="60" as="geometry"/>
                </mxCell>
                <mxCell id="M2H" value="M2H" style="shape=mxgraph.pid.mixers.in-line_static_mixer;fillColor=white;verticalLabelPosition=bottom;labelPosition=center;align=center;verticalAlign=top;" parent="1" vertex="1">
                    <mxGeometry x="1199.9999999999998" y="420.83333333333377" width="70" height="20" as="geometry"/>
                </mxCell>
                <mxCell id="RXDehydration" value="RXDehydration" style="shape=rectangle;rounded=1;strokeColor=#00f;fillColor=default;fillColor=white;verticalLabelPosition=bottom;labelPosition=center;align=center;verticalAlign=top;" parent="1" vertex="1">
                    <mxGeometry x="1500" y="420.8333333333338" width="100" height="60" as="geometry"/>
                </mxCell>
                <mxCell id="H2H" value="H2H" style="shape=mxgraph.pid.heat_exchangers.heater;fillColor=white;verticalLabelPosition=bottom;labelPosition=center;align=center;verticalAlign=top;" parent="1" vertex="1">
                    <mxGeometry x="1800" y="420.8333333333339" width="60" height="60" as="geometry"/>
                </mxCell>
                <mxCell id="F1H" value="F1H" style="shape=mxgraph.pid.separators.spray_scrubber;fillColor=white;verticalLabelPosition=bottom;labelPosition=center;align=center;verticalAlign=top;" parent="1" vertex="1">
                    <mxGeometry x="2100" y="420.833333333334" width="100" height="100" as="geometry"/>
                </mxCell>
                <mxCell id="splitTop" value="splitTop" style="shape=mxgraph.pid.filters.filter;fillColor=white;verticalLabelPosition=bottom;labelPosition=center;align=center;verticalAlign=top;" parent="1" vertex="1">
                    <mxGeometry x="2400" y="270.833333333334" width="30" height="30" as="geometry"/>
                </mxCell>
                <mxCell id="M1H" value="M1H" style="shape=mxgraph.pid.mixers.in-line_static_mixer;fillColor=white;verticalLabelPosition=bottom;labelPosition=center;align=center;verticalAlign=top;" parent="1" vertex="1">
                    <mxGeometry x="599.9999999999999" y="420.8333333333337" width="70" height="20" as="geometry"/>
                </mxCell>
                <mxCell id="C1H" value="C1H" style="shape=rectangle;rounded=1;strokeColor=#00f;fillColor=default;fillColor=white;verticalLabelPosition=bottom;labelPosition=center;align=center;verticalAlign=top;" parent="1" vertex="1">
                    <mxGeometry x="899.9999999999999" y="420.8333333333337" width="100" height="60" as="geometry"/>
                </mxCell>
                <mxCell id="HXDehydration" value="HXDehydration" style="shape=mxgraph.pid.heat_exchangers.heater;fillColor=white;verticalLabelPosition=bottom;labelPosition=center;align=center;verticalAlign=top;" parent="1" vertex="1">
                    <mxGeometry x="1800" y="120.8333333333339" width="60" height="60" as="geometry"/>
                </mxCell>
                <mxCell id="HX_CO2" value="HX_CO2" style="shape=mxgraph.pid.heat_exchangers.heater;fillColor=white;verticalLabelPosition=bottom;labelPosition=center;align=center;verticalAlign=top;" parent="1" vertex="1">
                    <mxGeometry x="1200.0000000000002" y="-1079.166666666666" width="60" height="60" as="geometry"/>
                </mxCell>
                <mxCell id="DRDryer" value="DRDryer" style="shape=rectangle;rounded=1;strokeColor=#00f;fillColor=default;fillColor=white;verticalLabelPosition=bottom;labelPosition=center;align=center;verticalAlign=top;" parent="1" vertex="1">
                    <mxGeometry x="1800.0000000000005" y="-3029.166666666666" width="100" height="60" as="geometry"/>
                </mxCell>
                <mxCell id="STDigestate" value="STDigestate" style="shape=mxgraph.pid.vessels.tank_(floating_roof);fillColor=white;verticalLabelPosition=bottom;labelPosition=center;align=center;verticalAlign=top;" parent="1" vertex="1">
                    <mxGeometry x="2100.0000000000005" y="-3029.166666666666" width="160" height="200" as="geometry"/>
                </mxCell>
                <mxCell id="RXPyrolysis" value="RXPyrolysis" style="shape=rectangle;rounded=1;strokeColor=#00f;fillColor=default;fillColor=white;verticalLabelPosition=bottom;labelPosition=center;align=center;verticalAlign=top;" parent="1" vertex="1">
                    <mxGeometry x="2400.0000000000005" y="-3029.166666666666" width="100" height="60" as="geometry"/>
                </mxCell>
                <mxCell id="SPBiochar" value="SPBiochar" style="shape=mxgraph.pid.filters.filter;fillColor=white;verticalLabelPosition=bottom;labelPosition=center;align=center;verticalAlign=top;" parent="1" vertex="1">
                    <mxGeometry x="2700.0000000000005" y="-3029.166666666666" width="30" height="30" as="geometry"/>
                </mxCell>
                <mxCell id="MXWastewater" value="MXWastewater" style="shape=mxgraph.pid.mixers.in-line_static_mixer;fillColor=white;verticalLabelPosition=bottom;labelPosition=center;align=center;verticalAlign=top;" parent="1" vertex="1">
                    <mxGeometry x="1500.0000000000005" y="-2279.166666666666" width="70" height="20" as="geometry"/>
                </mxCell>
                <mxCell id="WWTC" value="WWTC" style="shape=rectangle;rounded=1;strokeColor=#00f;fillColor=default;fillColor=white;verticalLabelPosition=bottom;labelPosition=center;align=center;verticalAlign=top;" parent="1" vertex="1">
                    <mxGeometry x="1800.0000000000005" y="-2279.166666666666" width="100" height="60" as="geometry"/>
                </mxCell>
                <mxCell id="heat_recovery" value="heat_recovery" style="shape=rectangle;rounded=1;strokeColor=#00f;fillColor=default;fillColor=white;verticalLabelPosition=bottom;labelPosition=center;align=center;verticalAlign=top;" parent="1" vertex="1">
                    <mxGeometry x="599.9999999999998" y="1020.8333333333337" width="100" height="60" as="geometry"/>
                </mxCell>
                <mxCell id="iInFeed-PPFeed" style="edgeStyle=elbowEdgeStyle;html=1;orthogonal=1;fontFamily=Helvetica;fontSize=18;align=center;" parent="1" source="iInFeed" target="PPFeed" edge="1">
                    <mxGeometry relative="1" as="geometry"/>
                </mxCell>
                <mxCell id="iInFeed" value="InFeed" style="rounded=1;whiteSpace=wrap;html=1;fontFamily=Helvetica;fontSize=18;align=center;" parent="1" vertex="1">
                    <mxGeometry x="300.00000000000045" y="-2629.166666666666" width="100" height="60" as="geometry"/>
                </mxCell>
                <mxCell id="smanureout" value="manureout" style="edgeStyle=elbowEdgeStyle;html=1;orthogonal=1;fontFamily=Helvetica;fontSize=18;align=center;" parent="1" source="PPFeed" target="MXPGfeed" edge="1">
                    <mxGeometry relative="1" as="geometry"/>
                </mxCell>
                <mxCell id="iPGMakeup-PGshredder" style="edgeStyle=elbowEdgeStyle;html=1;orthogonal=1;fontFamily=Helvetica;fontSize=18;align=center;" parent="1" source="iPGMakeup" target="PGshredder" edge="1">
                    <mxGeometry relative="1" as="geometry"/>
                </mxCell>
                <mxCell id="iPGMakeup" value="PGMakeup" style="rounded=1;whiteSpace=wrap;html=1;fontFamily=Helvetica;fontSize=18;align=center;" parent="1" vertex="1">
                    <mxGeometry x="300.0000000000004" y="-2329.166666666666" width="100" height="60" as="geometry"/>
                </mxCell>
                <mxCell id="sPGshredded" value="PGshredded" style="edgeStyle=elbowEdgeStyle;html=1;orthogonal=1;fontFamily=Helvetica;fontSize=18;align=center;" parent="1" source="PGshredder" target="MXPGfeed" edge="1">
                    <mxGeometry relative="1" as="geometry"/>
                </mxCell>
                <mxCell id="sTotalFeed" value="TotalFeed" style="edgeStyle=elbowEdgeStyle;html=1;orthogonal=1;fontFamily=Helvetica;fontSize=18;align=center;" parent="1" source="MXPGfeed" target="TkDigester" edge="1">
                    <mxGeometry relative="1" as="geometry"/>
                </mxCell>
                <mxCell id="sRW" value="RW" style="edgeStyle=elbowEdgeStyle;html=1;orthogonal=1;fontFamily=Helvetica;fontSize=18;align=center;" parent="1" source="TkDigester" target="TkDigester" edge="1">
                    <mxGeometry relative="1" as="geometry"/>
                </mxCell>
                <mxCell id="swetbiogas" value="wetbiogas" style="edgeStyle=elbowEdgeStyle;html=1;orthogonal=1;fontFamily=Helvetica;fontSize=18;align=center;" parent="1" source="TkDigester" target="MXBiogas" edge="1">
                    <mxGeometry relative="1" as="geometry"/>
                </mxCell>
                <mxCell id="swastewater" value="wastewater" style="edgeStyle=elbowEdgeStyle;html=1;orthogonal=1;fontFamily=Helvetica;fontSize=18;align=center;" parent="1" source="TkDigester" target="FLDigestate" edge="1">
                    <mxGeometry relative="1" as="geometry"/>
                </mxCell>
                <mxCell id="ssludge" value="sludge" style="edgeStyle=elbowEdgeStyle;html=1;orthogonal=1;fontFamily=Helvetica;fontSize=18;align=center;" parent="1" source="TkDigester" target="MXWastewater" edge="1">
                    <mxGeometry relative="1" as="geometry"/>
                </mxCell>
                <mxCell id="sbiogas2" value="biogas2" style="edgeStyle=elbowEdgeStyle;html=1;orthogonal=1;fontFamily=Helvetica;fontSize=18;align=center;" parent="1" source="FLDigestate" target="MXBiogas" edge="1">
                    <mxGeometry relative="1" as="geometry"/>
                </mxCell>
                <mxCell id="sdigestateWaste" value="digestateWaste" style="edgeStyle=elbowEdgeStyle;html=1;orthogonal=1;fontFamily=Helvetica;fontSize=18;align=center;" parent="1" source="FLDigestate" target="DRDryer" edge="1">
                    <mxGeometry relative="1" as="geometry"/>
                </mxCell>
                <mxCell id="sbiogas_mixer_out" value="biogas_mixer_out" style="edgeStyle=elbowEdgeStyle;html=1;orthogonal=1;fontFamily=Helvetica;fontSize=18;align=center;" parent="1" source="MXBiogas" target="Compressor" edge="1">
                    <mxGeometry relative="1" as="geometry"/>
                </mxCell>
                <mxCell id="scomp_biogas" value="comp_biogas" style="edgeStyle=elbowEdgeStyle;html=1;orthogonal=1;fontFamily=Helvetica;fontSize=18;align=center;" parent="1" source="Compressor" target="RXGasCleaning" edge="1">
                    <mxGeometry relative="1" as="geometry"/>
                </mxCell>
                <mxCell id="sgasout_mixer" value="gasout_mixer" style="edgeStyle=elbowEdgeStyle;html=1;orthogonal=1;fontFamily=Helvetica;fontSize=18;align=center;" parent="1" source="RXGasCleaning" target="SPGasSplitting" edge="1">
                    <mxGeometry relative="1" as="geometry"/>
                </mxCell>
                <mxCell id="sBiogas" value="Biogas" style="edgeStyle=elbowEdgeStyle;html=1;orthogonal=1;fontFamily=Helvetica;fontSize=18;align=center;" parent="1" source="SPGasSplitting" target="CPRNG" edge="1">
                    <mxGeometry relative="1" as="geometry"/>
                </mxCell>
                <mxCell id="sflue_gas" value="flue_gas" style="edgeStyle=elbowEdgeStyle;html=1;orthogonal=1;fontFamily=Helvetica;fontSize=18;align=center;" parent="1" source="SPGasSplitting" target="heat_recovery" edge="1">
                    <mxGeometry relative="1" as="geometry"/>
                </mxCell>
                <mxCell id="scompressed_biogas" value="compressed_biogas" style="edgeStyle=elbowEdgeStyle;html=1;orthogonal=1;fontFamily=Helvetica;fontSize=18;align=center;" parent="1" source="CPRNG" target="HXGasCooling" edge="1">
                    <mxGeometry relative="1" as="geometry"/>
                </mxCell>
                <mxCell id="srng_cooler_out" value="rng_cooler_out" style="edgeStyle=elbowEdgeStyle;html=1;orthogonal=1;fontFamily=Helvetica;fontSize=18;align=center;" parent="1" source="HXGasCooling" target="MXCO2Absorber" edge="1">
                    <mxGeometry relative="1" as="geometry"/>
                </mxCell>
                <mxCell id="iMEA-MXCO2Absorber" style="edgeStyle=elbowEdgeStyle;html=1;orthogonal=1;fontFamily=Helvetica;fontSize=18;align=center;" parent="1" source="iMEA" target="MXCO2Absorber" edge="1">
                    <mxGeometry relative="1" as="geometry"/>
                </mxCell>
                <mxCell id="iMEA" value="MEA" style="rounded=1;whiteSpace=wrap;html=1;fontFamily=Helvetica;fontSize=18;align=center;" parent="1" vertex="1">
                    <mxGeometry x="300.00000000000034" y="-1829.1666666666665" width="100" height="60" as="geometry"/>
                </mxCell>
                <mxCell id="sMEARecycle" value="MEARecycle" style="edgeStyle=elbowEdgeStyle;html=1;orthogonal=1;fontFamily=Helvetica;fontSize=18;align=center;" parent="1" source="CLMEARecovery" target="MXCO2Absorber" edge="1">
                    <mxGeometry relative="1" as="geometry"/>
                </mxCell>
                <mxCell id="sMEARNG" value="MEARNG" style="edgeStyle=elbowEdgeStyle;html=1;orthogonal=1;fontFamily=Helvetica;fontSize=18;align=center;" parent="1" source="MXCO2Absorber" target="CLCO2Absorber" edge="1">
                    <mxGeometry relative="1" as="geometry"/>
                </mxCell>
                <mxCell id="sch4Rich" value="ch4Rich" style="edgeStyle=elbowEdgeStyle;html=1;orthogonal=1;fontFamily=Helvetica;fontSize=18;align=center;" parent="1" source="CLCO2Absorber" target="MXAbsorber" edge="1">
                    <mxGeometry relative="1" as="geometry"/>
                </mxCell>
                <mxCell id="sco2Rich" value="co2Rich" style="edgeStyle=elbowEdgeStyle;html=1;orthogonal=1;fontFamily=Helvetica;fontSize=18;align=center;" parent="1" source="CLCO2Absorber" target="CLCO2BottomFlash" edge="1">
                    <mxGeometry relative="1" as="geometry"/>
                </mxCell>
                <mxCell id="sco2_bottom" value="co2_bottom" style="edgeStyle=elbowEdgeStyle;html=1;orthogonal=1;fontFamily=Helvetica;fontSize=18;align=center;" parent="1" source="CLCO2BottomFlash" target="MXAbsorber" edge="1">
                    <mxGeometry relative="1" as="geometry"/>
                </mxCell>
                <mxCell id="sco2_top" value="co2_top" style="edgeStyle=elbowEdgeStyle;html=1;orthogonal=1;fontFamily=Helvetica;fontSize=18;align=center;" parent="1" source="CLCO2BottomFlash" target="PPCO2" edge="1">
                    <mxGeometry relative="1" as="geometry"/>
                </mxCell>
                <mxCell id="scompressed_co2" value="compressed_co2" style="edgeStyle=elbowEdgeStyle;html=1;orthogonal=1;fontFamily=Helvetica;fontSize=18;align=center;" parent="1" source="PPCO2" target="HXCO2" edge="1">
                    <mxGeometry relative="1" as="geometry"/>
                </mxCell>
                <mxCell id="is2-HXCO2" style="edgeStyle=elbowEdgeStyle;html=1;orthogonal=1;fontFamily=Helvetica;fontSize=18;align=center;" parent="1" source="is2" target="HXCO2" edge="1">
                    <mxGeometry relative="1" as="geometry"/>
                </mxCell>
                <mxCell id="is2" value="s2" style="rounded=1;whiteSpace=wrap;html=1;fontFamily=Helvetica;fontSize=18;align=center;" parent="1" vertex="1">
                    <mxGeometry x="300.0000000000002" y="-1079.1666666666665" width="100" height="60" as="geometry"/>
                </mxCell>
                <mxCell id="sco2hx0" value="co2hx0" style="edgeStyle=elbowEdgeStyle;html=1;orthogonal=1;fontFamily=Helvetica;fontSize=18;align=center;" parent="1" source="HXCO2" target="Stripper_Column_A2" edge="1">
                    <mxGeometry relative="1" as="geometry"/>
                </mxCell>
                <mxCell id="oco2hx1-HXCO2" style="edgeStyle=elbowEdgeStyle;html=1;orthogonal=1;fontFamily=Helvetica;fontSize=18;align=center;" parent="1" source="HXCO2" target="oco2hx1" edge="1">
                    <mxGeometry relative="1" as="geometry"/>
                </mxCell>
                <mxCell id="oco2hx1" value="co2hx1" style="rounded=1;whiteSpace=wrap;html=1;fontFamily=Helvetica;fontSize=12;align=center;" parent="1" vertex="1">
                    <mxGeometry x="900.0000000000001" y="-929.1666666666663" width="100" height="60" as="geometry"/>
                </mxCell>
                <mxCell id="sS30" value="S30" style="edgeStyle=elbowEdgeStyle;html=1;orthogonal=1;fontFamily=Helvetica;fontSize=18;align=center;" parent="1" source="Stripper_Column_A2" target="HX_CO2" edge="1">
                    <mxGeometry relative="1" as="geometry"/>
                </mxCell>
                <mxCell id="sCO2StripperOut" value="CO2StripperOut" style="edgeStyle=elbowEdgeStyle;html=1;orthogonal=1;fontFamily=Helvetica;fontSize=18;align=center;" parent="1" source="Stripper_Column_A2" target="CLMEARecovery" edge="1">
                    <mxGeometry relative="1" as="geometry"/>
                </mxCell>
                <mxCell id="omea_loss-CLMEARecovery" style="edgeStyle=elbowEdgeStyle;html=1;orthogonal=1;fontFamily=Helvetica;fontSize=18;align=center;" parent="1" source="CLMEARecovery" target="omea_loss" edge="1">
                    <mxGeometry relative="1" as="geometry"/>
                </mxCell>
                <mxCell id="omea_loss" value="mea_loss" style="rounded=1;whiteSpace=wrap;html=1;fontFamily=Helvetica;fontSize=12;align=center;" parent="1" vertex="1">
                    <mxGeometry x="1500.0000000000002" y="-1379.166666666666" width="100" height="60" as="geometry"/>
                </mxCell>
                <mxCell id="smx_out" value="mx_out" style="edgeStyle=elbowEdgeStyle;html=1;orthogonal=1;fontFamily=Helvetica;fontSize=18;align=center;" parent="1" source="MXAbsorber" target="CLRNGFlash" edge="1">
                    <mxGeometry relative="1" as="geometry"/>
                </mxCell>
                <mxCell id="srng_out" value="rng_out" style="edgeStyle=elbowEdgeStyle;html=1;orthogonal=1;fontFamily=Helvetica;fontSize=18;align=center;" parent="1" source="CLRNGFlash" target="CPRNG2" edge="1">
                    <mxGeometry relative="1" as="geometry"/>
                </mxCell>
                <mxCell id="sco2_waste" value="co2_waste" style="edgeStyle=elbowEdgeStyle;html=1;orthogonal=1;fontFamily=Helvetica;fontSize=18;align=center;" parent="1" source="CLRNGFlash" target="mxSteamReformer" edge="1">
                    <mxGeometry relative="1" as="geometry"/>
                </mxCell>
                <mxCell id="sRNG2out" value="RNG2out" style="edgeStyle=elbowEdgeStyle;html=1;orthogonal=1;fontFamily=Helvetica;fontSize=18;align=center;" parent="1" source="CPRNG2" target="HXRNGCooling" edge="1">
                    <mxGeometry relative="1" as="geometry"/>
                </mxCell>
                <mxCell id="sRNG" value="RNG" style="edgeStyle=elbowEdgeStyle;html=1;orthogonal=1;fontFamily=Helvetica;fontSize=18;align=center;" parent="1" source="HXRNGCooling" target="C2" edge="1">
                    <mxGeometry relative="1" as="geometry"/>
                </mxCell>
                <mxCell id="ss3" value="s3" style="edgeStyle=elbowEdgeStyle;html=1;orthogonal=1;fontFamily=Helvetica;fontSize=18;align=center;" parent="1" source="C2" target="mxSteamReformer" edge="1">
                    <mxGeometry relative="1" as="geometry"/>
                </mxCell>
                <mxCell id="iwater1-P2Reformer" style="edgeStyle=elbowEdgeStyle;html=1;orthogonal=1;fontFamily=Helvetica;fontSize=18;align=center;" parent="1" source="iwater1" target="P2Reformer" edge="1">
                    <mxGeometry relative="1" as="geometry"/>
                </mxCell>
                <mxCell id="iwater1" value="water1" style="rounded=1;whiteSpace=wrap;html=1;fontFamily=Helvetica;fontSize=18;align=center;" parent="1" vertex="1">
                    <mxGeometry x="300.0000000000001" y="-629.1666666666664" width="100" height="60" as="geometry"/>
                </mxCell>
                <mxCell id="ss4" value="s4" style="edgeStyle=elbowEdgeStyle;html=1;orthogonal=1;fontFamily=Helvetica;fontSize=18;align=center;" parent="1" source="P2Reformer" target="mxSteamReformer" edge="1">
                    <mxGeometry relative="1" as="geometry"/>
                </mxCell>
                <mxCell id="smxSteamReformer" value="mxSteamReformer" style="edgeStyle=elbowEdgeStyle;html=1;orthogonal=1;fontFamily=Helvetica;fontSize=18;align=center;" parent="1" source="mxSteamReformer" target="rxSMR" edge="1">
                    <mxGeometry relative="1" as="geometry"/>
                </mxCell>
                <mxCell id="sR1product" value="R1product" style="edgeStyle=elbowEdgeStyle;html=1;orthogonal=1;fontFamily=Helvetica;fontSize=18;align=center;" parent="1" source="rxSMR" target="rxWGS" edge="1">
                    <mxGeometry relative="1" as="geometry"/>
                </mxCell>
                <mxCell id="sproduct2" value="product2" style="edgeStyle=elbowEdgeStyle;html=1;orthogonal=1;fontFamily=Helvetica;fontSize=18;align=center;" parent="1" source="rxWGS" target="spWGS" edge="1">
                    <mxGeometry relative="1" as="geometry"/>
                </mxCell>
                <mxCell id="sspWGS" value="spWGS" style="edgeStyle=elbowEdgeStyle;html=1;orthogonal=1;fontFamily=Helvetica;fontSize=18;align=center;" parent="1" source="spWGS" target="SplPressureSwing" edge="1">
                    <mxGeometry relative="1" as="geometry"/>
                </mxCell>
                <mxCell id="os6-spWGS" style="edgeStyle=elbowEdgeStyle;html=1;orthogonal=1;fontFamily=Helvetica;fontSize=18;align=center;" parent="1" source="spWGS" target="os6" edge="1">
                    <mxGeometry relative="1" as="geometry"/>
                </mxCell>
                <mxCell id="os6" value="s6" style="rounded=1;whiteSpace=wrap;html=1;fontFamily=Helvetica;fontSize=12;align=center;" parent="1" vertex="1">
                    <mxGeometry x="2100" y="-479.166666666666" width="100" height="60" as="geometry"/>
                </mxCell>
                <mxCell id="oH2-SplPressureSwing" style="edgeStyle=elbowEdgeStyle;html=1;orthogonal=1;fontFamily=Helvetica;fontSize=18;align=center;" parent="1" source="SplPressureSwing" target="oH2" edge="1">
                    <mxGeometry relative="1" as="geometry"/>
                </mxCell>
                <mxCell id="oH2" value="H2" style="rounded=1;whiteSpace=wrap;html=1;fontFamily=Helvetica;fontSize=12;align=center;" parent="1" vertex="1">
                    <mxGeometry x="2400" y="-779.1666666666661" width="100" height="60" as="geometry"/>
                </mxCell>
                <mxCell id="sSplPressureSwing" value="SplPressureSwing" style="edgeStyle=elbowEdgeStyle;html=1;orthogonal=1;fontFamily=Helvetica;fontSize=18;align=center;" parent="1" source="SplPressureSwing" target="rxAlcohols" edge="1">
                    <mxGeometry relative="1" as="geometry"/>
                </mxCell>
                <mxCell id="is5-rxAlcohols" style="edgeStyle=elbowEdgeStyle;html=1;orthogonal=1;fontFamily=Helvetica;fontSize=18;align=center;" parent="1" source="is5" target="rxAlcohols" edge="1">
                    <mxGeometry relative="1" as="geometry"/>
                </mxCell>
                <mxCell id="is5" value="s5" style="rounded=1;whiteSpace=wrap;html=1;fontFamily=Helvetica;fontSize=18;align=center;" parent="1" vertex="1">
                    <mxGeometry x="300" y="-29.166666666666377" width="100" height="60" as="geometry"/>
                </mxCell>
                <mxCell id="sHydrousEthanol" value="HydrousEthanol" style="edgeStyle=elbowEdgeStyle;html=1;orthogonal=1;fontFamily=Helvetica;fontSize=18;align=center;" parent="1" source="rxAlcohols" target="MXdehydration" edge="1">
                    <mxGeometry relative="1" as="geometry"/>
                </mxCell>
                <mxCell id="sStream1" value="Stream1" style="edgeStyle=elbowEdgeStyle;html=1;orthogonal=1;fontFamily=Helvetica;fontSize=18;align=center;" parent="1" source="MXdehydration" target="p1" edge="1">
                    <mxGeometry relative="1" as="geometry"/>
                </mxCell>
                <mxCell id="ss7" value="s7" style="edgeStyle=elbowEdgeStyle;html=1;orthogonal=1;fontFamily=Helvetica;fontSize=18;align=center;" parent="1" source="p1" target="ProcessHX" edge="1">
                    <mxGeometry relative="1" as="geometry"/>
                </mxCell>
                <mxCell id="sStreamDehydration" value="StreamDehydration" style="edgeStyle=elbowEdgeStyle;html=1;orthogonal=1;fontFamily=Helvetica;fontSize=18;align=center;" parent="1" source="RXDehydration" target="ProcessHX" edge="1">
                    <mxGeometry relative="1" as="geometry"/>
                </mxCell>
                <mxCell id="sEthanol2" value="Ethanol2" style="edgeStyle=elbowEdgeStyle;html=1;orthogonal=1;fontFamily=Helvetica;fontSize=18;align=center;" parent="1" source="ProcessHX" target="HXDehydration" edge="1">
                    <mxGeometry relative="1" as="geometry"/>
                </mxCell>
                <mxCell id="ss8" value="s8" style="edgeStyle=elbowEdgeStyle;html=1;orthogonal=1;fontFamily=Helvetica;fontSize=18;align=center;" parent="1" source="ProcessHX" target="C1Dehydration" edge="1">
                    <mxGeometry relative="1" as="geometry"/>
                </mxCell>
                <mxCell id="ss9" value="s9" style="edgeStyle=elbowEdgeStyle;html=1;orthogonal=1;fontFamily=Helvetica;fontSize=18;align=center;" parent="1" source="C1Dehydration" target="D1Dehydration" edge="1">
                    <mxGeometry relative="1" as="geometry"/>
                </mxCell>
                <mxCell id="sdistillate" value="distillate" style="edgeStyle=elbowEdgeStyle;html=1;orthogonal=1;fontFamily=Helvetica;fontSize=18;align=center;" parent="1" source="D1Dehydration" target="splitTopD" edge="1">
                    <mxGeometry relative="1" as="geometry"/>
                </mxCell>
                <mxCell id="obottoms_product-D1Dehydration" style="edgeStyle=elbowEdgeStyle;html=1;orthogonal=1;fontFamily=Helvetica;fontSize=18;align=center;" parent="1" source="D1Dehydration" target="obottoms_product" edge="1">
                    <mxGeometry relative="1" as="geometry"/>
                </mxCell>
                <mxCell id="obottoms_product" value="bottoms_product" style="rounded=1;whiteSpace=wrap;html=1;fontFamily=Helvetica;fontSize=12;align=center;" parent="1" vertex="1">
                    <mxGeometry x="2400" y="-29.16666666666599" width="100" height="60" as="geometry"/>
                </mxCell>
                <mxCell id="sc2h4out" value="c2h4out" style="edgeStyle=elbowEdgeStyle;html=1;orthogonal=1;fontFamily=Helvetica;fontSize=18;align=center;" parent="1" source="splitTopD" target="M1O" edge="1">
                    <mxGeometry relative="1" as="geometry"/>
                </mxCell>
                <mxCell id="orecycleStream-splitTopD" style="edgeStyle=elbowEdgeStyle;html=1;orthogonal=1;fontFamily=Helvetica;fontSize=18;align=center;" parent="1" source="splitTopD" target="orecycleStream" edge="1">
                    <mxGeometry relative="1" as="geometry"/>
                </mxCell>
                <mxCell id="orecycleStream" value="recycleStream" style="rounded=1;whiteSpace=wrap;html=1;fontFamily=Helvetica;fontSize=12;align=center;" parent="1" vertex="1">
                    <mxGeometry x="2700" y="-179.16666666666592" width="100" height="60" as="geometry"/>
                </mxCell>
                <mxCell id="sStream4" value="Stream4" style="edgeStyle=elbowEdgeStyle;html=1;orthogonal=1;fontFamily=Helvetica;fontSize=18;align=center;" parent="1" source="splitTop" target="M1O" edge="1">
                    <mxGeometry relative="1" as="geometry"/>
                </mxCell>
                <mxCell id="sCin" value="Cin" style="edgeStyle=elbowEdgeStyle;html=1;orthogonal=1;fontFamily=Helvetica;fontSize=18;align=center;" parent="1" source="M1O" target="C1O" edge="1">
                    <mxGeometry relative="1" as="geometry"/>
                </mxCell>
                <mxCell id="ss10" value="s10" style="edgeStyle=elbowEdgeStyle;html=1;orthogonal=1;fontFamily=Helvetica;fontSize=18;align=center;" parent="1" source="C1O" target="H1O" edge="1">
                    <mxGeometry relative="1" as="geometry"/>
                </mxCell>
                <mxCell id="ss11" value="s11" style="edgeStyle=elbowEdgeStyle;html=1;orthogonal=1;fontFamily=Helvetica;fontSize=18;align=center;" parent="1" source="H1O" target="RXOligomerization" edge="1">
                    <mxGeometry relative="1" as="geometry"/>
                </mxCell>
                <mxCell id="ss12" value="s12" style="edgeStyle=elbowEdgeStyle;html=1;orthogonal=1;fontFamily=Helvetica;fontSize=18;align=center;" parent="1" source="RXOligomerization" target="F1O" edge="1">
                    <mxGeometry relative="1" as="geometry"/>
                </mxCell>
                <mxCell id="ssplitIn" value="splitIn" style="edgeStyle=elbowEdgeStyle;html=1;orthogonal=1;fontFamily=Helvetica;fontSize=18;align=center;" parent="1" source="F1O" target="splitTop" edge="1">
                    <mxGeometry relative="1" as="geometry"/>
                </mxCell>
                <mxCell id="sStream6" value="Stream6" style="edgeStyle=elbowEdgeStyle;html=1;orthogonal=1;fontFamily=Helvetica;fontSize=18;align=center;" parent="1" source="F1O" target="P1H" edge="1">
                    <mxGeometry relative="1" as="geometry"/>
                </mxCell>
                <mxCell id="sP1Hout" value="P1Hout" style="edgeStyle=elbowEdgeStyle;html=1;orthogonal=1;fontFamily=Helvetica;fontSize=18;align=center;" parent="1" source="P1H" target="H1H" edge="1">
                    <mxGeometry relative="1" as="geometry"/>
                </mxCell>
                <mxCell id="sM2Hin" value="M2Hin" style="edgeStyle=elbowEdgeStyle;html=1;orthogonal=1;fontFamily=Helvetica;fontSize=18;align=center;" parent="1" source="H1H" target="M2H" edge="1">
                    <mxGeometry relative="1" as="geometry"/>
                </mxCell>
                <mxCell id="sM2in" value="M2in" style="edgeStyle=elbowEdgeStyle;html=1;orthogonal=1;fontFamily=Helvetica;fontSize=18;align=center;" parent="1" source="C1H" target="M2H" edge="1">
                    <mxGeometry relative="1" as="geometry"/>
                </mxCell>
                <mxCell id="sRin3" value="Rin3" style="edgeStyle=elbowEdgeStyle;html=1;orthogonal=1;fontFamily=Helvetica;fontSize=18;align=center;" parent="1" source="M2H" target="RXDehydration" edge="1">
                    <mxGeometry relative="1" as="geometry"/>
                </mxCell>
                <mxCell id="sflashIn" value="flashIn" style="edgeStyle=elbowEdgeStyle;html=1;orthogonal=1;fontFamily=Helvetica;fontSize=18;align=center;" parent="1" source="RXDehydration" target="H2H" edge="1">
                    <mxGeometry relative="1" as="geometry"/>
                </mxCell>
                <mxCell id="sRin2" value="Rin2" style="edgeStyle=elbowEdgeStyle;html=1;orthogonal=1;fontFamily=Helvetica;fontSize=18;align=center;" parent="1" source="H2H" target="F1H" edge="1">
                    <mxGeometry relative="1" as="geometry"/>
                </mxCell>
                <mxCell id="ssplitInx" value="splitInx" style="edgeStyle=elbowEdgeStyle;html=1;orthogonal=1;fontFamily=Helvetica;fontSize=18;align=center;" parent="1" source="F1H" target="splitTop" edge="1">
                    <mxGeometry relative="1" as="geometry"/>
                </mxCell>
                <mxCell id="oStream10-F1H" style="edgeStyle=elbowEdgeStyle;html=1;orthogonal=1;fontFamily=Helvetica;fontSize=18;align=center;" parent="1" source="F1H" target="oStream10" edge="1">
                    <mxGeometry relative="1" as="geometry"/>
                </mxCell>
                <mxCell id="oStream10" value="Stream10" style="rounded=1;whiteSpace=wrap;html=1;fontFamily=Helvetica;fontSize=12;align=center;" parent="1" vertex="1">
                    <mxGeometry x="2400" y="570.833333333334" width="100" height="60" as="geometry"/>
                </mxCell>
                <mxCell id="oJetFuel-splitTop" style="edgeStyle=elbowEdgeStyle;html=1;orthogonal=1;fontFamily=Helvetica;fontSize=18;align=center;" parent="1" source="splitTop" target="oJetFuel" edge="1">
                    <mxGeometry relative="1" as="geometry"/>
                </mxCell>
                <mxCell id="oJetFuel" value="JetFuel" style="rounded=1;whiteSpace=wrap;html=1;fontFamily=Helvetica;fontSize=12;align=center;" parent="1" vertex="1">
                    <mxGeometry x="2700" y="270.83333333333405" width="100" height="60" as="geometry"/>
                </mxCell>
                <mxCell id="sStream8" value="Stream8" style="edgeStyle=elbowEdgeStyle;html=1;orthogonal=1;fontFamily=Helvetica;fontSize=18;align=center;" parent="1" source="splitTop" target="M1H" edge="1">
                    <mxGeometry relative="1" as="geometry"/>
                </mxCell>
                <mxCell id="iStream7-M1H" style="edgeStyle=elbowEdgeStyle;html=1;orthogonal=1;fontFamily=Helvetica;fontSize=18;align=center;" parent="1" source="iStream7" target="M1H" edge="1">
                    <mxGeometry relative="1" as="geometry"/>
                </mxCell>
                <mxCell id="iStream7" value="Stream7" style="rounded=1;whiteSpace=wrap;html=1;fontFamily=Helvetica;fontSize=18;align=center;" parent="1" vertex="1">
                    <mxGeometry x="299.99999999999994" y="420.83333333333366" width="100" height="60" as="geometry"/>
                </mxCell>
                <mxCell id="ss13" value="s13" style="edgeStyle=elbowEdgeStyle;html=1;orthogonal=1;fontFamily=Helvetica;fontSize=18;align=center;" parent="1" source="M1H" target="C1H" edge="1">
                    <mxGeometry relative="1" as="geometry"/>
                </mxCell>
                <mxCell id="sDehydrated3" value="Dehydrated3" style="edgeStyle=elbowEdgeStyle;html=1;orthogonal=1;fontFamily=Helvetica;fontSize=18;align=center;" parent="1" source="HXDehydration" target="RXDehydration" edge="1">
                    <mxGeometry relative="1" as="geometry"/>
                </mxCell>
                <mxCell id="oS30_bis-HX_CO2" style="edgeStyle=elbowEdgeStyle;html=1;orthogonal=1;fontFamily=Helvetica;fontSize=18;align=center;" parent="1" source="HX_CO2" target="oS30_bis" edge="1">
                    <mxGeometry relative="1" as="geometry"/>
                </mxCell>
                <mxCell id="oS30_bis" value="S30_bis" style="rounded=1;whiteSpace=wrap;html=1;fontFamily=Helvetica;fontSize=12;align=center;" parent="1" vertex="1">
                    <mxGeometry x="1500.0000000000002" y="-1079.166666666666" width="100" height="60" as="geometry"/>
                </mxCell>
                <mxCell id="sdry" value="dry" style="edgeStyle=elbowEdgeStyle;html=1;orthogonal=1;fontFamily=Helvetica;fontSize=18;align=center;" parent="1" source="DRDryer" target="STDigestate" edge="1">
                    <mxGeometry relative="1" as="geometry"/>
                </mxCell>
                <mxCell id="swastewater2" value="wastewater2" style="edgeStyle=elbowEdgeStyle;html=1;orthogonal=1;fontFamily=Helvetica;fontSize=18;align=center;" parent="1" source="DRDryer" target="MXWastewater" edge="1">
                    <mxGeometry relative="1" as="geometry"/>
                </mxCell>
                <mxCell id="sstored_digest" value="stored_digest" style="edgeStyle=elbowEdgeStyle;html=1;orthogonal=1;fontFamily=Helvetica;fontSize=18;align=center;" parent="1" source="STDigestate" target="RXPyrolysis" edge="1">
                    <mxGeometry relative="1" as="geometry"/>
                </mxCell>
                <mxCell id="ssoil_amend_out" value="soil_amend_out" style="edgeStyle=elbowEdgeStyle;html=1;orthogonal=1;fontFamily=Helvetica;fontSize=18;align=center;" parent="1" source="RXPyrolysis" target="SPBiochar" edge="1">
                    <mxGeometry relative="1" as="geometry"/>
                </mxCell>
                <mxCell id="oSoilAmendment-SPBiochar" style="edgeStyle=elbowEdgeStyle;html=1;orthogonal=1;fontFamily=Helvetica;fontSize=18;align=center;" parent="1" source="SPBiochar" target="oSoilAmendment" edge="1">
                    <mxGeometry relative="1" as="geometry"/>
                </mxCell>
                <mxCell id="oSoilAmendment" value="SoilAmendment" style="rounded=1;whiteSpace=wrap;html=1;fontFamily=Helvetica;fontSize=12;align=center;" parent="1" vertex="1">
                    <mxGeometry x="3000.0000000000005" y="-3179.166666666666" width="100" height="60" as="geometry"/>
                </mxCell>
                <mxCell id="oFlueGas-SPBiochar" style="edgeStyle=elbowEdgeStyle;html=1;orthogonal=1;fontFamily=Helvetica;fontSize=18;align=center;" parent="1" source="SPBiochar" target="oFlueGas" edge="1">
                    <mxGeometry relative="1" as="geometry"/>
                </mxCell>
                <mxCell id="oFlueGas" value="FlueGas" style="rounded=1;whiteSpace=wrap;html=1;fontFamily=Helvetica;fontSize=12;align=center;" parent="1" vertex="1">
                    <mxGeometry x="3000.0000000000005" y="-2879.166666666666" width="100" height="60" as="geometry"/>
                </mxCell>
                <mxCell id="streatedWW" value="treatedWW" style="edgeStyle=elbowEdgeStyle;html=1;orthogonal=1;fontFamily=Helvetica;fontSize=18;align=center;" parent="1" source="MXWastewater" target="WWTC" edge="1">
                    <mxGeometry relative="1" as="geometry"/>
                </mxCell>
                <mxCell id="os1-WWTC" style="edgeStyle=elbowEdgeStyle;html=1;orthogonal=1;fontFamily=Helvetica;fontSize=18;align=center;" parent="1" source="WWTC" target="os1" edge="1">
                    <mxGeometry relative="1" as="geometry"/>
                </mxCell>
                <mxCell id="os1" value="s1" style="rounded=1;whiteSpace=wrap;html=1;fontFamily=Helvetica;fontSize=12;align=center;" parent="1" vertex="1">
                    <mxGeometry x="2100.0000000000005" y="-2279.166666666666" width="100" height="60" as="geometry"/>
                </mxCell>
                <mxCell id="isolidFuel-heat_recovery" style="edgeStyle=elbowEdgeStyle;html=1;orthogonal=1;fontFamily=Helvetica;fontSize=18;align=center;" parent="1" source="isolidFuel" target="heat_recovery" edge="1">
                    <mxGeometry relative="1" as="geometry"/>
                </mxCell>
                <mxCell id="isolidFuel" value="solidFuel" style="rounded=1;whiteSpace=wrap;html=1;fontFamily=Helvetica;fontSize=18;align=center;" parent="1" vertex="1">
                    <mxGeometry x="299.9999999999998" y="1020.8333333333336" width="100" height="60" as="geometry"/>
                </mxCell>
                <mxCell id="imakeUpWater-heat_recovery" style="edgeStyle=elbowEdgeStyle;html=1;orthogonal=1;fontFamily=Helvetica;fontSize=18;align=center;" parent="1" source="imakeUpWater" target="heat_recovery" edge="1">
                    <mxGeometry relative="1" as="geometry"/>
                </mxCell>
                <mxCell id="imakeUpWater" value="makeUpWater" style="rounded=1;whiteSpace=wrap;html=1;fontFamily=Helvetica;fontSize=18;align=center;" parent="1" vertex="1">
                    <mxGeometry x="299.9999999999998" y="1320.8333333333335" width="100" height="60" as="geometry"/>
                </mxCell>
                <mxCell id="inaturalGas-heat_recovery" style="edgeStyle=elbowEdgeStyle;html=1;orthogonal=1;fontFamily=Helvetica;fontSize=18;align=center;" parent="1" source="inaturalGas" target="heat_recovery" edge="1">
                    <mxGeometry relative="1" as="geometry"/>
                </mxCell>
                <mxCell id="inaturalGas" value="naturalGas" style="rounded=1;whiteSpace=wrap;html=1;fontFamily=Helvetica;fontSize=18;align=center;" parent="1" vertex="1">
                    <mxGeometry x="299.9999999999997" y="1620.8333333333335" width="100" height="60" as="geometry"/>
                </mxCell>
                <mxCell id="ilime-heat_recovery" style="edgeStyle=elbowEdgeStyle;html=1;orthogonal=1;fontFamily=Helvetica;fontSize=18;align=center;" parent="1" source="ilime" target="heat_recovery" edge="1">
                    <mxGeometry relative="1" as="geometry"/>
                </mxCell>
                <mxCell id="ilime" value="lime" style="rounded=1;whiteSpace=wrap;html=1;fontFamily=Helvetica;fontSize=18;align=center;" parent="1" vertex="1">
                    <mxGeometry x="299.99999999999966" y="1920.8333333333335" width="100" height="60" as="geometry"/>
                </mxCell>
                <mxCell id="iboilerChemicals-heat_recovery" style="edgeStyle=elbowEdgeStyle;html=1;orthogonal=1;fontFamily=Helvetica;fontSize=18;align=center;" parent="1" source="iboilerChemicals" target="heat_recovery" edge="1">
                    <mxGeometry relative="1" as="geometry"/>
                </mxCell>
                <mxCell id="iboilerChemicals" value="boilerChemicals" style="rounded=1;whiteSpace=wrap;html=1;fontFamily=Helvetica;fontSize=18;align=center;" parent="1" vertex="1">
                    <mxGeometry x="299.9999999999996" y="2220.833333333333" width="100" height="60" as="geometry"/>
                </mxCell>
                <mxCell id="oFlueGas3-heat_recovery" style="edgeStyle=elbowEdgeStyle;html=1;orthogonal=1;fontFamily=Helvetica;fontSize=18;align=center;" parent="1" source="heat_recovery" target="oFlueGas3" edge="1">
                    <mxGeometry relative="1" as="geometry"/>
                </mxCell>
                <mxCell id="oFlueGas3" value="FlueGas3" style="rounded=1;whiteSpace=wrap;html=1;fontFamily=Helvetica;fontSize=12;align=center;" parent="1" vertex="1">
                    <mxGeometry x="899.9999999999999" y="720.8333333333337" width="100" height="60" as="geometry"/>
                </mxCell>
                <mxCell id="oWater-heat_recovery" style="edgeStyle=elbowEdgeStyle;html=1;orthogonal=1;fontFamily=Helvetica;fontSize=18;align=center;" parent="1" source="heat_recovery" target="oWater" edge="1">
                    <mxGeometry relative="1" as="geometry"/>
                </mxCell>
                <mxCell id="oWater" value="Water" style="rounded=1;whiteSpace=wrap;html=1;fontFamily=Helvetica;fontSize=12;align=center;" parent="1" vertex="1">
                    <mxGeometry x="899.9999999999999" y="1020.8333333333337" width="100" height="60" as="geometry"/>
                </mxCell>
                <mxCell id="oAsh-heat_recovery" style="edgeStyle=elbowEdgeStyle;html=1;orthogonal=1;fontFamily=Helvetica;fontSize=18;align=center;" parent="1" source="heat_recovery" target="oAsh" edge="1">
                    <mxGeometry relative="1" as="geometry"/>
                </mxCell>
                <mxCell id="oAsh" value="Ash" style="rounded=1;whiteSpace=wrap;html=1;fontFamily=Helvetica;fontSize=12;align=center;" parent="1" vertex="1">
                    <mxGeometry x="899.9999999999998" y="1320.833333333334" width="100" height="60" as="geometry"/>
                </mxCell>
            </root>
        </mxGraphModel>
    </diagram>
</mxfile>